Coordinates
version=1
nRows=15
nColumns=42
inDegrees=yes

Units are S.I. units (second, meters, Newtons, ...)
If the header above contains a line with 'inDegrees', this indicates whether rotational values are in degrees (yes) or radians (no).

endheader
time	pelvis_tilt	pelvis_list	pelvis_rotation	pelvis_tx	pelvis_ty	pelvis_tz	hip_flexion_r	hip_adduction_r	hip_rotation_r	knee_angle_r	knee_adduction_r	knee_angle_r_beta	ankle_angle_r	subtalar_angle_r	mtp_angle_r	hip_flexion_l	hip_adduction_l	hip_rotation_l	knee_angle_l	knee_adduction_l	knee_angle_l_beta	ankle_angle_l	subtalar_angle_l	mtp_angle_l	lumbar_extension	lumbar_bending	lumbar_rotation	arm_flex_r	arm_add_r	arm_rot_r	elbow_flex_r	pro_sup_r	wrist_flex_r	wrist_dev_r	arm_flex_l	arm_add_l	arm_rot_l	elbow_flex_l	pro_sup_l	wrist_flex_l	wrist_dev_l
      0.00000000	      3.28186250	     -0.09204964	     -1.04386651	     -2.10644154	      0.97553393	      0.26721068	     15.44768909	     -6.88876133	     -6.89226429	     37.75389328	      6.54220874	      0.65892974	      9.83114600	      3.16634510	     -9.58222101	     -6.88780840	      1.65055675	     -5.39461076	      3.34662721	      0.14362182	      0.05840966	      9.08787344	     16.27961772	     -9.58222101	     -9.24222653	      0.30006771	     -2.55663285	     -8.01223881	    -12.09588740	      8.49855554	     27.67166300	     90.00000001	      0.00000000	      0.00000000	      8.83825844	    -17.65086069	     22.07762223	     30.80644461	     90.00000001	      0.00000000	      0.00000000
      0.01000000	      3.16135741	      0.10202292	     -1.09262956	     -2.10104031	      0.97477888	      0.26718481	     16.01859468	     -7.07757203	     -7.40268861	     36.60659563	      6.37302096	      0.63890562	      9.84691623	      3.18438070	     -9.56473684	     -7.10180284	      1.90638645	     -5.56260886	      3.36810160	      0.09575130	      0.05878446	      9.33947337	     16.24278043	     -9.56473684	     -9.06550749	      0.17146176	     -2.48928342	     -8.32216385	    -12.05661474	      8.54381646	     27.54630725	     90.00000001	      0.00000000	      0.00000000	      9.14138028	    -17.68522183	     22.00441663	     31.16508850	     90.00000001	      0.00000000	      0.00000000
      0.02000000	      3.41969723	     -0.14036692	     -0.83192151	     -2.09392623	      0.97442630	      0.26729588	     15.90123241	     -6.76349765	     -8.34362210	     34.58915894	      6.14899487	      0.60369471	      9.84501981	      3.72056483	     -9.49190800	     -7.92480742	      1.60285032	     -5.34298875	      3.23519606	      0.10800872	      0.05646482	      9.88624001	     16.54080508	     -9.49190800	     -9.30112319	      0.54144201	     -2.76687121	     -8.49990706	    -11.98664141	      8.55420513	     27.20315071	     90.00000001	      0.00000000	      0.00000000	      9.37585407	    -17.86665140	     21.91756485	     32.00352033	     90.00000001	      0.00000000	      0.00000000
      0.03000000	      3.25001963	      0.16729944	     -0.90430942	     -2.08596950	      0.97316331	      0.26737344	     16.65100648	     -7.03038727	     -9.08460789	     32.80796931	      5.90958565	      0.57260709	      9.79376356	      3.88041205	     -9.47299923	     -8.25014281	      1.99307987	     -5.57432301	      3.26898127	      0.04140294	      0.05705449	     10.26614927	     16.50923027	     -9.47299923	     -9.05103861	      0.31995695	     -2.69634145	     -8.90769644	    -11.92863173	      8.57555389	     27.02848562	     90.00000001	      0.00000000	      0.00000000	      9.78766112	    -17.94419877	     21.82346705	     32.53216749	     90.00000001	      0.00000000	      0.00000000
      0.04000000	      3.26548734	      0.13878249	     -0.68414844	     -2.07702578	      0.97210442	      0.26734278	     16.81117583	     -6.98074776	     -9.74773625	     30.15588048	      5.97327508	      0.52631940	      9.60749380	      4.78072006	     -9.43876446	     -8.90945130	      1.98944643	     -5.30009176	      3.16886076	     -0.06653380	      0.05530705	     10.96012863	     16.86426048	     -9.43876446	     -9.01133291	      0.51411053	     -2.97601887	     -9.13801138	    -11.82228190	      8.53683356	     26.56875843	     90.00000001	      0.00000000	      0.00000000	     10.01280912	    -18.15125973	     21.72801295	     33.60918524	     90.00000001	      0.00000000	      0.00000000
      0.05000000	      3.79983557	     -0.15408187	     -0.41900205	     -2.06707691	      0.97146325	      0.26789330	     16.32357798	     -6.49744004	    -11.07888568	     27.31563084	      5.59726220	      0.47674770	      9.46750708	      5.62974004	     -9.36478660	    -10.23821348	      1.50860148	     -5.39724616	      3.00126326	      0.11291634	      0.05238193	     11.58563833	     17.30441963	     -9.36478660	     -9.51205465	      0.95184049	     -3.24544052	     -9.35378171	    -11.67806013	      8.30832773	     26.12324015	     90.00000001	      0.00000000	      0.00000000	     10.29704718	    -18.42399677	     21.71367787	     34.69731403	     90.00000001	      0.00000000	      0.00000000
      0.06000000	      3.91749221	     -0.11252935	     -0.28912538	     -2.05718555	      0.97012070	      0.26822828	     16.37937191	     -6.42965450	    -11.87378937	     24.54906427	      5.52660622	      0.42846200	      9.23836798	      6.40663365	     -9.29874794	    -11.03857146	      1.51581924	     -5.44948668	      2.96360478	      0.10543005	      0.05172466	     12.21397532	     17.62186081	     -9.29874794	     -9.57508544	      1.05048893	     -3.43766313	     -9.58818197	    -11.55288832	      8.16863515	     25.69483206	     90.00000001	      0.00000000	      0.00000000	     10.54544497	    -18.66176328	     21.64282680	     35.77430337	     90.00000001	      0.00000000	      0.00000000
      0.07000000	      3.70097655	      0.21604015	     -0.25612566	     -2.04740234	      0.96823104	      0.26848828	     16.90160154	     -6.68921618	    -12.40078449	     22.00605877	      5.53256531	      0.38407818	      8.87322853	      7.21482644	     -9.27357009	    -11.42076054	      1.94483033	     -5.45065544	      3.00823742	     -0.08412277	      0.05250365	     12.79999716	     17.72774337	     -9.27357009	     -9.27322740	      0.84107421	     -3.55372455	     -9.91368827	    -11.44653410	      8.15316735	     25.42683770	     90.00000001	      0.00000000	      0.00000000	     10.80514551	    -18.85062324	     21.53194573	     36.66785482	     90.00000001	      0.00000000	      0.00000000
      0.08000000	      3.83137678	      0.22742813	     -0.07624344	     -2.03735024	      0.96669855	      0.26895124	     16.77616447	     -6.61558145	    -13.03738410	     19.20661142	      5.61309163	      0.33521861	      8.62728631	      8.18883021	     -9.23661308	    -12.22074493	      1.88264312	     -5.32990561	      3.02818539	     -0.06032152	      0.05285181	     13.43567709	     17.89991203	     -9.23661308	     -9.36323166	      0.97082763	     -3.80562654	    -10.06532953	    -11.32973154	      8.07649814	     24.93068020	     90.00000001	      0.00000000	      0.00000000	     10.93496669	    -19.13757186	     21.41482916	     37.91968845	     90.00000001	      0.00000000	      0.00000000
      0.09000000	      3.79313541	      0.36021482	      0.01968052	     -2.02743396	      0.96494409	      0.26940882	     16.89079213	     -6.64507210	    -13.53261483	     16.65230292	      5.63982444	      0.29063751	      8.25524053	      9.17712665	     -9.20892096	    -12.78996373	      2.03270159	     -5.18817271	      3.10683586	     -0.16432758	      0.05422452	     14.05436730	     17.97763200	     -9.20892096	     -9.28015404	      0.98412017	     -3.98447625	    -10.27841213	    -11.22585201	      8.00977007	     24.61584467	     90.00000001	      0.00000000	      0.00000000	     11.03933858	    -19.33028391	     21.33038675	     38.96477234	     90.00000001	      0.00000000	      0.00000000
      0.10000000	      4.15616097	      0.12220817	      0.24712415	     -2.01714869	      0.96365450	      0.27016664	     16.35095233	     -6.21876269	    -14.20108430	     14.02628524	      5.56765289	      0.24480486	      7.92792854	     10.07512493	     -9.15638961	    -13.85926692	      1.63025529	     -5.01799797	      3.12320236	     -0.05796941	      0.05451016	     14.62529750	     17.97134185	     -9.15638961	     -9.61494906	      1.39360779	     -4.24849384	    -10.38602015	    -11.10912226	      7.79150734	     24.17128779	     90.00000001	      0.00000000	      0.00000000	     11.07083947	    -19.58346975	     21.27440781	     40.17709891	     90.00000001	      0.00000000	      0.00000000
      0.11000000	      4.16477109	      0.12560855	      0.39284795	     -2.00726502	      0.96194120	      0.27076739	     16.29333704	     -6.10480823	    -14.53316932	     11.78431226	      5.58761198	      0.20567505	      7.55174955	     10.99690740	     -9.09958585	    -14.47338859	      1.58798910	     -4.76873533	      3.21235998	     -0.10951753	      0.05606626	     15.19822016	     17.86685534	     -9.09958585	     -9.60074743	      1.54814818	     -4.46637308	    -10.52029867	    -11.01753207	      7.58082288	     23.87937395	     90.00000001	      0.00000000	      0.00000000	     11.08966008	    -19.78404536	     21.21151270	     41.21282081	     90.00000001	      0.00000000	      0.00000000
      0.12000000	      4.10367895	      0.14820866	      0.54465163	     -1.99741043	      0.96018177	      0.27131038	     16.33129339	     -6.04844400	    -14.82104963	      9.88978872	      5.61904825	      0.17260938	      7.26329434	     11.93404491	     -9.05185530	    -14.97171743	      1.57890206	     -4.50967921	      3.37768323	     -0.18660933	      0.05895169	     15.72275354	     17.69783383	     -9.05185530	     -9.51123260	      1.69737487	     -4.68743367	    -10.64612512	    -10.95041903	      7.39754898	     23.59569729	     90.00000001	      0.00000000	      0.00000000	     11.04243225	    -19.95199628	     21.13720540	     42.25792288	     90.00000001	      0.00000000	      0.00000000
      0.13000000	      4.04307531	      0.13585396	      0.70015029	     -1.98751179	      0.95845015	      0.27187849	     16.36301713	     -5.95926633	    -15.05927227	      8.30882726	      5.62810104	      0.14501639	      6.98263048	     12.81521762	     -9.00133436	    -15.48569247	      1.51383608	     -4.18391844	      3.53078504	     -0.23684529	      0.06162382	     16.21402936	     17.51838287	     -9.00133436	     -9.42218415	      1.89387161	     -4.88563972	    -10.77951033	    -10.90554302	      7.14032005	     23.35637666	     90.00000001	      0.00000000	      0.00000000	     10.96120923	    -20.07183605	     21.07418399	     43.23371477	     90.00000001	      0.00000000	      0.00000000
      0.14000000	      3.81852942	      0.21363330	      0.81264276	     -1.97762502	      0.95656831	      0.27228899	     16.61848142	     -6.03348462	    -15.10098496	      7.15858407	      5.74123689	      0.12494086	      6.79419934	     13.56041456	     -8.98577609	    -15.80773304	      1.61579673	     -3.95099288	      3.69169306	     -0.40694160	      0.06443220	     16.68696123	     17.45241366	     -8.98577609	     -9.15367291	      2.00956056	     -5.04223907	    -10.94925763	    -10.92642430	      7.02454461	     23.22038497	     90.00000001	      0.00000000	      0.00000000	     10.85010029	    -20.13055249	     21.02503353	     44.08438458	     90.00000001	      0.00000000	      0.00000000
